# xmcd CD database file
#
# Track frame offsets:
#	150
#	16387
#	30549
#	45271
#	64527
#	78370
#	92462
#	109501
#	128784
#	149082
#	163531
#	178608
#	199604
#
# Disc length: 2881 seconds
#
# Revision: 4
# Processed by: cddbd v1.5.2PL0 Copyright (c) Steve Scherf et al.
# Submitted via: CDex 1.51
#
DISCID=9c0b3f0d
DTITLE=Mistrinanka - Melodie Pratelum (Melodien Den Freunden)
DYEAR=2001
DGENRE=Blasmusik
TTITLE0=Sardická (Schardizer)
TTITLE1=Trumpetovi Kamarádi (Trompetenkameraden)
TTITLE2=Pro Prátele (Für Freunde)
TTITLE3=Pro Tenory (Für Tenore)
TTITLE4=Kocicka (KätzchenZum)
TTITLE5=Jednoho Dne Se Vratim (Lied Vom Tod)
TTITLE6=Dva Kamarádi (Zwei Kameraden)
TTITLE7=Srdicko (Herzchen)
TTITLE8=Ave Maria (Ave Maria)
TTITLE9=Zvonecková (Glockenlied)
TTITLE10=Mladá Hvezda (Junger Stern)
TTITLE11=Na Perském Trhu (Auf Dem Persischem Marktskladba)
TTITLE12=Na Zdravi (Wohlsein!)
EXTD=YEAR: 2001
EXTT0=
EXTT1=
EXTT2=
EXTT3=
EXTT4=
EXTT5=
EXTT6=
EXTT7=
EXTT8=
EXTT9=
EXTT10=
EXTT11=
EXTT12=
PLAYORDER=
